<svg width="200" height="50" viewBox="0 0 200 50" fill="none" xmlns="http://www.w3.org/2000/svg">
<path d="M0 25.9947V0H9.88828L14.7719 22.6526H15.4984L20.382 0H30.2702V25.9947H25.1041V3.60213H24.3776L19.5344 25.9947H10.7358L5.89261 3.60213H5.16612V25.9947H0ZM41.1125 26.3067C38.9815 26.3067 37.2863 25.7719 36.0271 24.7024C34.7678 23.6181 34.1382 22.0733 34.1382 20.0679V16.3247C34.1382 14.3194 34.7678 12.782 36.0271 11.7125C37.2863 10.6281 38.9815 10.086 41.1125 10.086C43.2435 10.086 44.9386 10.6281 46.1979 11.7125C47.4571 12.782 48.0868 14.3194 48.0868 16.3247V20.0679C48.0868 22.0733 47.4571 23.6181 46.1979 24.7024C44.9386 25.7719 43.2435 26.3067 41.1125 26.3067ZM41.1125 23.6775C42.3071 23.6775 43.2354 23.3581 43.8973 22.7194C44.5593 22.0807 44.8902 21.2266 44.8902 20.1571V16.2356C44.8902 15.1661 44.5593 14.312 43.8973 13.6732C43.2354 13.0345 42.3071 12.7151 41.1125 12.7151C39.934 12.7151 39.0057 13.0345 38.3276 13.6732C37.6657 14.312 37.3348 15.1661 37.3348 16.2356V20.1571C37.3348 21.2266 37.6657 22.0807 38.3276 22.7194C39.0057 23.3581 39.934 23.6775 41.1125 23.6775ZM50.8903 25.9947V10.3979H56.9686L60.3346 23.9894H60.7705V10.3979H63.9186V25.9947H57.8404L54.4743 12.4032H54.0384V25.9947H50.8903ZM67.1137 25.9947V10.3979H70.3102V16.5921H70.7461L76.2432 10.3979H80.3357L73.2646 18.0849L80.5779 25.9947H76.3642L70.7461 19.6669H70.3102V25.9947H67.1137ZM82.272 25.9947V10.3979H93.1698V13.0716H85.469V16.7926H92.4917V19.4664H85.469V23.321H93.3151V25.9947H82.272ZM100.04 25.9947V20.625L94.2767 10.3979H97.8364L101.42 17.0823H101.856L105.44 10.3979H109L103.237 20.625V25.9947H100.04ZM116.204 26.3067C114.896 26.3067 113.742 26.0913 112.741 25.6605C111.74 25.2298 110.957 24.6133 110.392 23.8112C109.827 23.0091 109.544 22.0435 109.544 20.9146V20.2908H112.693V20.9146C112.693 21.8504 113.007 22.556 113.637 23.0313C114.267 23.4918 115.122 23.7221 116.204 23.7221C117.302 23.7221 118.117 23.5215 118.65 23.1205C119.199 22.7194 119.473 22.2069 119.473 21.5831C119.473 21.1523 119.336 20.8032 119.061 20.5358C118.803 20.2685 118.416 20.0531 117.899 19.8897C117.399 19.7114 116.785 19.548 116.059 19.3995L115.502 19.2881C114.339 19.0504 113.338 18.7534 112.499 18.3969C111.675 18.0255 111.038 17.5427 110.586 16.9486C110.15 16.3544 109.932 15.582 109.932 14.6313C109.932 13.6807 110.174 12.8711 110.658 12.2027C111.159 11.5194 111.853 10.9995 112.741 10.643C113.645 10.2716 114.703 10.086 115.913 10.086C117.124 10.086 118.198 10.2791 119.134 10.6653C120.087 11.0366 120.829 11.6011 121.362 12.3586C121.911 13.1014 122.185 14.0372 122.185 15.1661V15.8345H119.037V15.1661C119.037 14.5719 118.908 14.0966 118.65 13.7401C118.408 13.3687 118.052 13.1014 117.584 12.938C117.116 12.7597 116.559 12.6706 115.913 12.6706C114.945 12.6706 114.226 12.8414 113.758 13.183C113.306 13.5098 113.08 13.9629 113.08 14.5422C113.08 14.9284 113.185 15.2552 113.395 15.5226C113.621 15.79 113.952 16.0128 114.388 16.191C114.824 16.3693 115.381 16.5252 116.059 16.6589L116.616 16.7703C117.826 17.008 118.876 17.3125 119.764 17.6839C120.668 18.0552 121.37 18.5454 121.871 19.1544C122.371 19.7634 122.621 20.5433 122.621 21.4939C122.621 22.4446 122.355 23.2839 121.822 24.0117C121.305 24.7247 120.563 25.2892 119.594 25.7051C118.642 26.1061 117.512 26.3067 116.204 26.3067ZM126.071 25.9947V0H135.959L140.843 22.6526H141.569L146.453 0H156.341V25.9947H151.175V3.60213H150.449L145.605 25.9947H136.807L131.964 3.60213H131.237V25.9947H126.071ZM160.596 25.9947V10.3979H171.494V13.0716H163.793V16.7926H170.816V19.4664H163.793V23.321H171.639V25.9947H160.596ZM177.928 25.9947V13.0716H172.988V10.3979H186.065V13.0716H181.125V25.9947H177.928ZM185.519 25.9947L189.975 10.3979H195.544L200 25.9947H196.707L195.786 22.5634H189.732L188.812 25.9947H185.519ZM190.483 19.8451H195.036L192.977 12.2472H192.541L190.483 19.8451Z" fill="url(#paint0_linear_235_2334)"/>
<path d="M0 24.0054V50H9.88828L14.7719 27.3475H15.4984L20.382 50H30.2702V24.0054H25.1041V46.3979H24.3776L19.5344 24.0054H10.7358L5.89261 46.3979H5.16612V24.0054H0ZM41.1125 23.6934C38.9815 23.6934 37.2863 24.2282 36.0271 25.2977C34.7678 26.382 34.1382 27.9268 34.1382 29.9321V33.6753C34.1382 35.6806 34.7678 37.218 36.0271 38.2875C37.2863 39.3719 38.9815 39.914 41.1125 39.914C43.2435 39.914 44.9386 39.3719 46.1979 38.2875C47.4571 37.218 48.0868 35.6806 48.0868 33.6753V29.9321C48.0868 27.9268 47.4571 26.382 46.1979 25.2977C44.9386 24.2282 43.2435 23.6934 41.1125 23.6934ZM41.1125 26.3226C42.3071 26.3226 43.2354 26.642 43.8973 27.2807C44.5593 27.9193 44.8902 28.7734 44.8902 29.8429V33.7644C44.8902 34.8339 44.5593 35.688 43.8973 36.3268C43.2354 36.9655 42.3071 37.2849 41.1125 37.2849C39.934 37.2849 39.0057 36.9655 38.3276 36.3268C37.6657 35.688 37.3348 34.8339 37.3348 33.7644V29.8429C37.3348 28.7734 37.6657 27.9193 38.3276 27.2807C39.0057 26.642 39.934 26.3226 41.1125 26.3226ZM50.8903 24.0054V39.6021H56.9686L60.3346 26.0107H60.7705V39.6021H63.9186V24.0054H57.8404L54.4743 37.5968H54.0384V24.0054H50.8903ZM67.1137 24.0054V39.6021H70.3102V33.4079H70.7461L76.2432 39.6021H80.3357L73.2646 31.9151L80.5779 24.0054H76.3642L70.7461 30.3331H70.3102V24.0054H67.1137ZM82.272 24.0054V39.6021H93.1698V36.9284H85.469V33.2074H92.4917V30.5337H85.469V26.6791H93.3151V24.0054H82.272ZM100.04 24.0054V29.375L94.2767 39.6021H97.8364L101.42 32.9177H101.856L105.44 39.6021H109L103.237 29.375V24.0054H100.04ZM116.204 23.6934C114.896 23.6934 113.742 23.9088 112.741 24.3396C111.74 24.7703 110.957 25.3868 110.392 26.1889C109.827 26.991 109.544 27.9565 109.544 29.0854V29.7093H112.693V29.0854C112.693 28.1496 113.007 27.4441 113.637 26.9688C114.267 26.5083 115.122 26.278 116.204 26.278C117.302 26.278 118.117 26.4786 118.65 26.8796C119.199 27.2807 119.473 27.7931 119.473 28.4169C119.473 28.8477 119.336 29.1968 119.061 29.4642C118.803 29.7315 118.416 29.9469 117.899 30.1103C117.399 30.2886 116.785 30.452 116.059 30.6005L115.502 30.7119C114.339 30.9496 113.338 31.2467 112.499 31.6032C111.675 31.9745 111.038 32.4573 110.586 33.0514C110.15 33.6456 109.932 34.418 109.932 35.3687C109.932 36.3193 110.174 37.1289 110.658 37.7973C111.159 38.4806 111.853 39.0005 112.741 39.357C113.645 39.7284 114.703 39.914 115.913 39.914C117.124 39.914 118.198 39.7209 119.134 39.3347C120.087 38.9634 120.829 38.3989 121.362 37.6414C121.911 36.8987 122.185 35.9628 122.185 34.8339V34.1655H119.037V34.8339C119.037 35.4281 118.908 35.9034 118.65 36.2599C118.408 36.6313 118.052 36.8987 117.584 37.0621C117.116 37.2403 116.559 37.3294 115.913 37.3294C114.945 37.3294 114.226 37.1586 113.758 36.817C113.306 36.4902 113.08 36.0371 113.08 35.4578C113.08 35.0716 113.185 34.7448 113.395 34.4774C113.621 34.2101 113.952 33.9872 114.388 33.809C114.824 33.6307 115.381 33.4748 116.059 33.3411L116.616 33.2297C117.826 32.992 118.876 32.6875 119.764 32.3162C120.668 31.9448 121.37 31.4546 121.87 30.8456C122.371 30.2366 122.621 29.4567 122.621 28.5061C122.621 27.5555 122.355 26.7162 121.822 25.9884C121.305 25.2754 120.563 24.7109 119.594 24.295C118.642 23.894 117.512 23.6934 116.204 23.6934ZM126.071 24.0054V50H135.959L140.843 27.3475H141.569L146.453 50H156.341V24.0054H151.175V46.3979H150.449L145.605 24.0054H136.807L131.964 46.3979H131.237V24.0054H126.071ZM160.596 24.0054V39.6021H171.494V36.9284H163.793V33.2074H170.816V30.5337H163.793V26.6791H171.639V24.0054H160.596ZM177.928 24.0054V36.9284H172.988V39.6021H186.065V36.9284H181.125V24.0054H177.928ZM185.519 24.0054L189.974 39.6021H195.544L200 24.0054H196.707L195.786 27.4367H189.732L188.812 24.0054H185.519ZM190.483 30.1549H195.036L192.977 37.7528H192.541L190.483 30.1549Z" fill="url(#paint1_linear_235_2334)"/>
<defs>
<linearGradient id="paint0_linear_235_2334" x1="-2.66378" y1="71.8834" x2="15.7493" y2="-35.817" gradientUnits="userSpaceOnUse">
<stop stop-color="#2600FC"/>
<stop offset="1" stop-color="#FF00EA"/>
</linearGradient>
<linearGradient id="paint1_linear_235_2334" x1="-2.66378" y1="-18.634" x2="9.6637" y2="80.4714" gradientUnits="userSpaceOnUse">
<stop stop-color="#2600FC" stop-opacity="0.47"/>
<stop offset="1" stop-color="#FB20E9" stop-opacity="0.14"/>
</linearGradient>
</defs>
</svg>
