<svg width="159" height="39" viewBox="0 0 159 39" fill="none" xmlns="http://www.w3.org/2000/svg">
<path d="M27.836 25.208C27.812 25.232 27.8 25.268 27.8 25.316C27.8 25.34 27.788 25.364 27.764 25.388C27.716 25.484 27.692 25.532 27.692 25.532C27.668 25.628 27.632 25.688 27.584 25.712C27.536 25.736 27.488 25.772 27.44 25.82L27.296 25.928C27.224 26.24 27.164 26.54 27.116 26.828C27.092 27.14 27.056 27.452 27.008 27.764C26.984 27.884 26.96 28.064 26.936 28.304C26.936 28.544 26.912 28.604 26.864 28.484C26.792 28.172 26.756 27.86 26.756 27.548C26.78 27.236 26.768 26.924 26.72 26.612C26.72 26.588 26.696 26.588 26.648 26.612C26.624 26.66 26.6 26.684 26.576 26.684C26.528 26.708 26.468 26.744 26.396 26.792C26.324 26.84 26.24 26.852 26.144 26.828C26.12 26.828 26.084 26.804 26.036 26.756C25.844 26.756 25.64 26.672 25.424 26.504C25.4 26.576 25.388 26.66 25.388 26.756C25.412 26.876 25.388 26.96 25.316 27.008C25.244 27.056 25.208 27.02 25.208 26.9C25.208 26.78 25.196 26.684 25.172 26.612C25.172 26.612 25.16 26.504 25.136 26.288C25.136 26.096 25.028 26.048 24.812 26.144C24.788 26.168 24.752 26.204 24.704 26.252C24.68 26.3 24.632 26.36 24.56 26.432C24.488 26.528 24.404 26.612 24.308 26.684C24.284 26.708 24.248 26.744 24.2 26.792C24.176 26.864 24.14 26.924 24.092 26.972C24.02 27.02 23.948 27.008 23.876 26.936C23.828 26.888 23.78 26.852 23.732 26.828C23.708 26.828 23.648 26.84 23.552 26.864C23.48 26.912 23.444 26.948 23.444 26.972C23.444 26.972 23.432 26.972 23.408 26.972C23.408 26.972 23.408 26.984 23.408 27.008C23.408 27.008 23.384 27.032 23.336 27.08C23.192 27.248 23.084 27.44 23.012 27.656C22.94 27.896 22.856 28.112 22.76 28.304C22.712 28.4 22.652 28.508 22.58 28.628C22.532 28.772 22.448 28.88 22.328 28.952C22.304 29.264 22.28 29.576 22.256 29.888C22.256 30.2 22.232 30.512 22.184 30.824C22.16 30.896 22.136 31.004 22.112 31.148C22.112 31.292 22.088 31.328 22.04 31.256C21.968 31.112 21.932 30.956 21.932 30.788C21.932 30.644 21.92 30.488 21.896 30.32C21.872 30.056 21.86 29.804 21.86 29.564C21.86 29.324 21.836 29.084 21.788 28.844C21.644 28.724 21.536 28.616 21.464 28.52C21.368 28.376 21.26 28.22 21.14 28.052C21.044 27.884 20.936 27.716 20.816 27.548C20.72 27.38 20.624 27.224 20.528 27.08C20.456 26.936 20.372 26.792 20.276 26.648C20.252 26.6 20.216 26.552 20.168 26.504L20.06 26.324H20.024C20 26.324 19.964 26.264 19.916 26.144C19.892 26.048 19.856 25.964 19.808 25.892C19.928 26.012 19.964 26.048 19.916 26C19.892 25.952 19.832 25.88 19.736 25.784C19.664 25.688 19.616 25.64 19.592 25.64L19.556 25.604L19.448 25.424C19.448 25.4 19.436 25.388 19.412 25.388C19.412 25.364 19.412 25.34 19.412 25.316C19.34 25.124 19.316 24.908 19.34 24.668C19.364 24.404 19.376 24.176 19.376 23.984V15.452C19.376 15.86 19.388 16.052 19.412 16.028C19.436 16.004 19.46 15.896 19.484 15.704C19.508 15.512 19.508 15.356 19.484 15.236C19.46 15.092 19.4 15.116 19.304 15.308L19.16 15.524C19.112 15.572 19.088 15.608 19.088 15.632C19.112 15.632 19.1 15.656 19.052 15.704C19.052 15.704 19.04 15.716 19.016 15.74C19.016 15.74 19.016 15.752 19.016 15.776C18.896 15.944 18.776 16.124 18.656 16.316C18.56 16.508 18.452 16.7 18.332 16.892C18.14 17.204 17.948 17.528 17.756 17.864C17.564 18.2 17.36 18.524 17.144 18.836C17.12 18.908 17.084 18.98 17.036 19.052C16.988 19.124 16.94 19.184 16.892 19.232C16.82 19.328 16.736 19.424 16.64 19.52C16.568 19.616 16.472 19.688 16.352 19.736C16.328 19.76 16.292 19.796 16.244 19.844C16.22 19.892 16.172 19.976 16.1 20.096C16.076 20.12 16.04 20.132 15.992 20.132C15.968 20.396 15.944 20.804 15.92 21.356C15.92 21.884 15.908 22.46 15.884 23.084C15.884 23.708 15.872 24.296 15.848 24.848C15.848 25.376 15.836 25.772 15.812 26.036C15.812 26.06 15.788 26.072 15.74 26.072C15.692 26.072 15.668 26.06 15.668 26.036C15.644 25.7 15.62 25.172 15.596 24.452C15.596 23.732 15.596 23 15.596 22.256C15.596 21.512 15.572 20.924 15.524 20.492C15.524 20.492 15.488 20.456 15.416 20.384L15.38 20.42C15.38 20.42 15.38 20.432 15.38 20.456C15.38 20.456 15.368 20.456 15.344 20.456C15.344 20.504 15.32 20.552 15.272 20.6C15.224 20.696 15.164 20.792 15.092 20.888C15.02 20.96 14.936 21.02 14.84 21.068C14.792 21.188 14.78 21.344 14.804 21.536C14.828 21.728 14.78 21.812 14.66 21.788C14.54 21.74 14.504 21.632 14.552 21.464C14.6 21.272 14.6 21.104 14.552 20.96C14.504 20.912 14.456 20.852 14.408 20.78C14.36 20.708 14.312 20.66 14.264 20.636C14.192 20.564 14.156 20.528 14.156 20.528C14.132 20.624 14.096 20.72 14.048 20.816C14.024 20.912 14 20.984 13.976 21.032C13.976 20.912 13.94 20.768 13.868 20.6C13.82 20.648 13.796 20.684 13.796 20.708C13.796 20.708 13.772 20.732 13.724 20.78C13.676 20.852 13.628 20.936 13.58 21.032C13.532 21.128 13.484 21.212 13.436 21.284C13.412 21.308 13.364 21.356 13.292 21.428C13.244 21.476 13.196 21.488 13.148 21.464C13.1 21.44 13.064 21.416 13.04 21.392C13.016 21.344 12.98 21.308 12.932 21.284C12.812 21.164 12.728 20.984 12.68 20.744C12.632 20.576 12.584 20.42 12.536 20.276C12.512 20.108 12.476 19.94 12.428 19.772C12.332 19.724 12.248 19.664 12.176 19.592C12.128 19.496 12.068 19.412 11.996 19.34L11.816 19.052C11.624 18.74 11.432 18.428 11.24 18.116C11.048 17.78 10.856 17.456 10.664 17.144L10.34 16.604C10.268 16.508 10.196 16.412 10.124 16.316C10.076 16.22 10.016 16.124 9.944 16.028L9.836 15.812C9.812 15.764 9.788 15.716 9.764 15.668C9.74 15.62 9.704 15.572 9.656 15.524C9.656 15.5 9.644 15.488 9.62 15.488C9.62 15.488 9.62 15.476 9.62 15.452C9.62 15.452 9.596 15.428 9.548 15.38C9.548 15.26 9.524 15.176 9.476 15.128C9.452 15.056 9.44 15.116 9.44 15.308V24.452C9.44 24.572 9.44 24.704 9.44 24.848C9.464 24.968 9.464 25.088 9.44 25.208C9.44 25.16 9.428 25.184 9.404 25.28C9.38 25.352 9.38 25.376 9.404 25.352C9.38 25.448 9.32 25.544 9.224 25.64L9.008 25.856C8.984 25.952 8.96 26.048 8.936 26.144C8.936 26.264 8.912 26.384 8.864 26.504C8.816 26.816 8.756 27.116 8.684 27.404C8.636 27.716 8.564 28.028 8.468 28.34C8.444 28.412 8.408 28.532 8.36 28.7C8.312 28.868 8.264 28.988 8.216 29.06C8.072 29.204 7.964 29.156 7.892 28.916C7.82 28.7 7.772 28.58 7.748 28.556C7.7 28.364 7.652 28.16 7.604 27.944C7.556 27.752 7.508 27.548 7.46 27.332C7.436 27.212 7.424 27.092 7.424 26.972C7.424 26.852 7.4 26.744 7.352 26.648C7.304 26.696 7.244 26.744 7.172 26.792C7.1 26.864 7.028 26.924 6.956 26.972C6.908 27.428 6.872 27.896 6.848 28.376C6.848 28.88 6.824 29.372 6.776 29.852C6.776 29.876 6.752 29.864 6.704 29.816C6.656 29.768 6.632 29.732 6.632 29.708C6.416 29.348 6.344 29.012 6.416 28.7C6.488 28.412 6.56 28.112 6.632 27.8C6.728 27.488 6.668 27.164 6.452 26.828C6.428 26.78 6.404 26.732 6.38 26.684C6.356 26.636 6.32 26.588 6.272 26.54C6.224 26.54 6.2 26.54 6.2 26.54C6.152 26.924 6.128 27.296 6.128 27.656C6.128 28.04 6.104 28.412 6.056 28.772C6.056 28.772 6.008 28.772 5.912 28.772C5.816 28.772 5.768 28.76 5.768 28.736C5.744 28.376 5.72 28.004 5.696 27.62C5.696 27.26 5.672 26.888 5.624 26.504H5.444L5.408 26.468C5.36 26.468 5.336 26.468 5.336 26.468C5.312 26.78 5.3 27.08 5.3 27.368C5.3 27.68 5.276 27.992 5.228 28.304C5.228 28.328 5.18 28.292 5.084 28.196C4.988 28.148 4.94 28.112 4.94 28.088C4.892 27.824 4.868 27.572 4.868 27.332C4.868 27.092 4.856 26.852 4.832 26.612C4.808 26.636 4.784 26.672 4.76 26.72C4.736 26.768 4.736 26.768 4.76 26.72C4.736 26.792 4.688 26.864 4.616 26.936C4.592 26.96 4.556 26.984 4.508 27.008C4.46 27.056 4.412 27.104 4.364 27.152C4.292 27.296 4.244 27.44 4.22 27.584C4.196 27.752 4.148 27.92 4.076 28.088C4.052 28.112 4.028 28.148 4.004 28.196C4.004 28.244 3.98 28.292 3.932 28.34C3.884 28.388 3.836 28.388 3.788 28.34C3.692 28.244 3.632 28.076 3.608 27.836C3.584 27.596 3.548 27.44 3.5 27.368C3.38 27.248 3.272 27.092 3.176 26.9C3.104 26.732 3.008 26.528 2.888 26.288C2.864 26.336 2.852 26.372 2.852 26.396C2.852 26.444 2.84 26.492 2.816 26.54C2.792 26.564 2.732 26.552 2.636 26.504C2.564 26.48 2.528 26.468 2.528 26.468C2.432 26.42 2.36 26.372 2.312 26.324C2.336 26.372 2.348 26.456 2.348 26.576C2.348 26.696 2.3 26.888 2.204 27.152C2.18 27.248 2.156 27.332 2.132 27.404C2.108 27.476 2.084 27.56 2.06 27.656C2.036 27.92 2.024 28.328 2.024 28.88C2.024 29.456 2.024 30.056 2.024 30.68C2.024 31.328 2.024 31.928 2.024 32.48C2.024 33.056 2 33.476 1.952 33.74C1.928 33.98 1.904 34.016 1.88 33.848C1.88 33.68 1.88 33.392 1.88 32.984C1.88 32.576 1.88 32.156 1.88 31.724C1.88 31.292 1.88 30.956 1.88 30.716C1.856 29.996 1.844 29.396 1.844 28.916C1.844 28.46 1.832 28.004 1.808 27.548C1.784 27.116 1.724 26.588 1.628 25.964C1.532 25.916 1.448 25.868 1.376 25.82C1.112 25.628 0.98 25.364 0.98 25.028V1.772C0.98 1.508 1.076 1.28 1.268 1.088C1.46 0.895998 1.724 0.799998 2.06 0.799998H6.92C7.184 0.799998 7.436 0.799998 7.676 0.799998C7.916 0.775999 8.144 0.823999 8.36 0.943999C8.624 1.064 8.828 1.232 8.972 1.448C9.14 1.664 9.284 1.892 9.404 2.132C9.452 2.18 9.488 2.24 9.512 2.312C9.56 2.36 9.596 2.42 9.62 2.492L9.8 2.78C10.016 3.044 10.22 3.356 10.412 3.716C10.628 4.052 10.832 4.412 11.024 4.796L12.284 6.884C12.572 7.316 12.848 7.76 13.112 8.216C13.376 8.672 13.64 9.116 13.904 9.548C13.952 9.644 14.012 9.752 14.084 9.872C14.156 9.968 14.216 10.076 14.264 10.196L14.408 10.412L14.552 10.16C14.6 10.04 14.66 9.932 14.732 9.836C14.804 9.74 14.864 9.644 14.912 9.548C15.128 9.212 15.344 8.864 15.56 8.504C15.776 8.144 15.992 7.784 16.208 7.424L16.46 6.992C16.46 6.968 16.46 6.956 16.46 6.956C16.484 6.956 16.496 6.944 16.496 6.92C16.496 6.92 16.52 6.896 16.568 6.848L17.792 4.796C17.816 4.796 17.828 4.796 17.828 4.796C17.828 4.772 17.828 4.76 17.828 4.76C18.02 4.4 18.212 4.052 18.404 3.716C18.62 3.38 18.812 3.08 18.98 2.816L19.196 2.456C19.316 2.264 19.424 2.084 19.52 1.916C19.64 1.724 19.772 1.544 19.916 1.376C19.916 1.352 19.928 1.34 19.952 1.34C20.072 1.172 20.24 1.04 20.456 0.943999C20.672 0.823999 20.9 0.775999 21.14 0.799998C21.404 0.799998 21.656 0.799998 21.896 0.799998H26.864C27.008 0.799998 27.116 0.823999 27.188 0.872C27.26 0.895999 27.344 0.931999 27.44 0.979998C27.656 1.124 27.788 1.364 27.836 1.7C27.86 1.868 27.86 2.048 27.836 2.24C27.836 2.432 27.836 2.612 27.836 2.78V23.444C27.836 23.732 27.848 24.032 27.872 24.344C27.896 24.632 27.884 24.92 27.836 25.208ZM54.096 21.104C53.976 21.392 53.856 21.596 53.736 21.716L53.304 22.364C53.088 22.652 52.848 22.928 52.584 23.192L51.936 23.768C51.912 24.2 51.888 24.632 51.864 25.064C51.864 25.496 51.852 25.94 51.828 26.396C51.804 26.612 51.804 26.828 51.828 27.044C51.852 27.284 51.804 27.5 51.684 27.692C51.588 27.812 51.54 27.728 51.54 27.44C51.564 27.152 51.576 26.924 51.576 26.756C51.552 26.348 51.528 25.928 51.504 25.496C51.504 25.04 51.48 24.608 51.432 24.2C51.264 24.392 51.12 24.632 51 24.92C50.88 25.208 50.784 25.472 50.712 25.712C50.568 26.12 50.424 26.54 50.28 26.972C50.136 27.404 49.98 27.824 49.812 28.232C49.74 28.424 49.668 28.616 49.596 28.808C49.524 29.024 49.428 29.216 49.308 29.384C49.284 29.408 49.236 29.444 49.164 29.492C49.116 29.54 49.068 29.576 49.02 29.6C48.852 29.624 48.708 29.516 48.588 29.276C48.468 29.06 48.384 28.904 48.336 28.808C48.312 28.76 48.276 28.712 48.228 28.664C48.204 28.616 48.192 28.568 48.192 28.52C48.168 28.16 48.144 27.788 48.12 27.404C48.12 27.044 48.096 26.672 48.048 26.288C47.952 26.432 47.844 26.576 47.724 26.72C47.628 26.864 47.52 27.008 47.4 27.152C47.352 27.2 47.328 27.224 47.328 27.224C47.304 27.272 47.268 27.308 47.22 27.332C47.172 27.38 47.124 27.428 47.076 27.476C47.052 27.524 47.004 27.608 46.932 27.728C46.884 27.872 46.836 27.968 46.788 28.016C46.74 28.064 46.692 28.064 46.644 28.016C46.572 27.968 46.512 27.86 46.464 27.692C46.44 27.548 46.404 27.44 46.356 27.368C46.26 27.296 46.176 27.2 46.104 27.08C46.032 26.96 45.972 26.852 45.924 26.756C45.876 26.684 45.828 26.6 45.78 26.504C45.756 26.624 45.732 26.756 45.708 26.9C45.708 27.068 45.684 27.212 45.636 27.332C45.636 27.332 45.588 27.332 45.492 27.332C45.42 27.332 45.348 27.32 45.276 27.296C45.204 27.296 45.132 27.296 45.06 27.296C44.892 27.272 44.772 27.248 44.7 27.224H44.484C44.364 27.296 44.172 27.296 43.908 27.224C43.884 27.2 43.848 27.176 43.8 27.152C43.776 27.128 43.764 27.128 43.764 27.152C43.716 27.584 43.692 28.004 43.692 28.412C43.692 28.844 43.668 29.264 43.62 29.672C43.596 29.768 43.572 29.72 43.548 29.528C43.524 29.36 43.5 29.228 43.476 29.132C43.452 28.748 43.44 28.364 43.44 27.98C43.464 27.596 43.428 27.212 43.332 26.828C43.308 26.684 43.284 26.696 43.26 26.864C43.26 27.032 43.26 27.236 43.26 27.476C43.26 27.716 43.236 27.896 43.188 28.016C43.164 28.112 43.14 28.064 43.116 27.872C43.116 27.704 43.104 27.572 43.08 27.476L42.864 26.36H42.828C40.452 26.312 38.388 25.892 36.636 25.1C34.884 24.308 33.528 23.144 32.568 21.608C32.4 21.416 32.256 21.188 32.136 20.924C32.04 20.66 31.956 20.408 31.884 20.168L31.668 19.664V19.628C31.62 19.484 31.572 19.34 31.524 19.196C31.476 19.052 31.428 18.908 31.38 18.764C31.284 18.404 31.212 17.936 31.164 17.36C31.116 16.784 31.092 16.22 31.092 15.668C31.092 15.092 31.092 14.624 31.092 14.264C31.092 13.784 31.092 13.304 31.092 12.824C31.092 12.32 31.104 11.84 31.128 11.384V11.096C31.128 10.76 31.128 10.412 31.128 10.052C31.152 9.692 31.2 9.344 31.272 9.008C31.272 8.96 31.272 8.924 31.272 8.9C31.296 8.876 31.308 8.852 31.308 8.828C31.524 7.508 31.956 6.332 32.604 5.3C32.82 4.868 33.108 4.472 33.468 4.112C35.628 1.664 38.868 0.439999 43.188 0.439999H43.944C43.992 0.439999 44.028 0.451998 44.052 0.475998C44.172 0.475998 44.28 0.475998 44.376 0.475998C44.496 0.475998 44.604 0.487999 44.7 0.512C44.772 0.487999 44.832 0.487999 44.88 0.512C44.952 0.512 45.024 0.512 45.096 0.512L45.708 0.619998C45.948 0.643998 46.176 0.679998 46.392 0.727999C46.632 0.775999 46.872 0.823999 47.112 0.872C47.376 0.895999 47.676 0.967999 48.012 1.088C48.036 1.088 48.048 1.1 48.048 1.124C48.072 1.124 48.096 1.124 48.12 1.124C48.312 1.148 48.492 1.196 48.66 1.268C48.852 1.316 49.008 1.388 49.128 1.484C50.664 2.108 51.984 3.044 53.088 4.292C53.424 4.628 53.724 5.084 53.988 5.66C54.42 6.476 54.744 7.328 54.96 8.216C55.032 8.384 55.068 8.588 55.068 8.828L55.176 9.512C55.2 9.776 55.212 10.04 55.212 10.304C55.236 10.568 55.248 10.832 55.248 11.096C55.272 11.456 55.284 11.9 55.284 12.428C55.284 12.956 55.284 13.484 55.284 14.012C55.284 14.54 55.284 14.984 55.284 15.344C55.26 15.8 55.248 16.268 55.248 16.748C55.248 17.204 55.188 17.648 55.068 18.08C54.9 19.184 54.576 20.192 54.096 21.104ZM41.676 18.692C41.82 18.884 41.976 19.052 42.144 19.196C42.384 19.244 42.672 19.292 43.008 19.34H43.44C43.512 19.316 43.584 19.304 43.656 19.304C43.752 19.304 43.836 19.292 43.908 19.268C44.364 19.148 44.736 18.932 45.024 18.62C45.144 18.5 45.252 18.356 45.348 18.188C45.444 18.02 45.516 17.852 45.564 17.684L45.672 17.288C45.768 16.88 45.816 16.484 45.816 16.1C45.84 15.692 45.864 15.344 45.888 15.056V12.572C45.888 12.284 45.888 11.996 45.888 11.708C45.888 11.396 45.876 11.096 45.852 10.808C45.852 10.64 45.852 10.484 45.852 10.34C45.852 10.172 45.84 10.016 45.816 9.872C45.792 9.824 45.78 9.776 45.78 9.728C45.78 9.656 45.768 9.608 45.744 9.584C45.744 9.512 45.72 9.404 45.672 9.26C45.6 8.972 45.492 8.732 45.348 8.54C45.204 8.324 45.036 8.132 44.844 7.964L44.808 7.928C44.712 7.88 44.652 7.856 44.628 7.856C44.58 7.832 44.496 7.82 44.376 7.82C44.352 7.82 44.328 7.832 44.304 7.856C44.28 7.88 44.232 7.904 44.16 7.928C44.136 7.928 44.112 7.928 44.088 7.928C44.088 7.904 44.064 7.892 44.016 7.892C43.92 7.916 43.812 7.976 43.692 8.072C43.572 8.168 43.476 8.252 43.404 8.324C43.356 8.348 43.284 8.384 43.188 8.432C43.092 8.48 43.032 8.528 43.008 8.576C42.912 8.696 42.864 8.804 42.864 8.9C42.864 8.996 42.768 9.032 42.576 9.008C42.408 9.008 42.336 8.984 42.36 8.936C42.408 8.888 42.372 8.78 42.252 8.612C42.228 8.564 42.192 8.528 42.144 8.504C42.096 8.48 42.048 8.456 42 8.432C42.024 8.432 41.988 8.408 41.892 8.36C41.82 8.288 41.772 8.24 41.748 8.216C41.748 8.216 41.736 8.216 41.712 8.216C41.712 8.192 41.664 8.132 41.568 8.036C41.52 7.964 41.508 7.952 41.532 8C41.58 8.024 41.568 8.024 41.496 8C41.496 8 41.484 8 41.46 8C41.46 8 41.46 8.012 41.46 8.036C41.412 8.084 41.352 8.144 41.28 8.216C41.208 8.264 41.112 8.384 40.992 8.576C40.824 8.888 40.716 9.2 40.668 9.512C40.62 9.8 40.572 10.088 40.524 10.376C40.524 10.496 40.512 10.664 40.488 10.88C40.488 11.096 40.488 11.3 40.488 11.492V14.264C40.488 14.456 40.488 14.648 40.488 14.84C40.512 15.008 40.536 15.188 40.56 15.38C40.632 15.884 40.764 16.472 40.956 17.144L41.064 17.432C41.16 17.672 41.256 17.9 41.352 18.116C41.448 18.308 41.556 18.5 41.676 18.692ZM81.2108 25.208C81.1868 25.304 81.1508 25.388 81.1028 25.46C81.0788 25.532 81.0308 25.616 80.9588 25.712C81.0068 25.688 80.9708 25.724 80.8508 25.82C80.7548 25.892 80.7188 25.916 80.7428 25.892C80.7188 25.892 80.6948 25.904 80.6708 25.928C80.6228 26.168 80.5868 26.396 80.5628 26.612C80.5628 26.828 80.5508 27.056 80.5268 27.296C80.5028 27.68 80.4548 28.1 80.3828 28.556C80.3348 29.036 80.2868 29.468 80.2388 29.852C80.2148 30.092 80.1668 30.38 80.0948 30.716C80.0468 31.076 79.9988 31.376 79.9508 31.616C79.9268 31.688 79.9028 31.76 79.8788 31.832C79.8788 31.904 79.8548 31.964 79.8068 32.012C79.8068 32.036 79.7828 32.048 79.7348 32.048C79.7108 32.048 79.6988 32.036 79.6988 32.012C79.6508 31.964 79.6148 31.904 79.5908 31.832C79.5908 31.784 79.5788 31.736 79.5548 31.688C79.4828 31.472 79.4228 31.196 79.3748 30.86C79.3268 30.548 79.2788 30.296 79.2308 30.104C79.1348 29.552 79.0628 28.916 79.0148 28.196C78.9908 27.5 78.9188 26.888 78.7988 26.36C78.7748 26.48 78.7628 26.6 78.7628 26.72C78.7628 26.864 78.7388 26.996 78.6908 27.116C78.6668 27.164 78.6188 27.188 78.5468 27.188C78.4988 27.212 78.4508 27.248 78.4028 27.296C78.3788 27.296 78.3428 27.308 78.2948 27.332C78.2708 27.38 78.2588 27.392 78.2588 27.368C78.2348 27.248 78.2108 27.128 78.1868 27.008C78.1868 26.888 78.1748 26.768 78.1508 26.648C78.1508 26.672 78.1388 26.696 78.1148 26.72C78.0908 26.768 78.0668 26.816 78.0428 26.864C78.0188 26.912 77.9948 26.96 77.9708 27.008C77.9708 27.008 77.9588 27.008 77.9348 27.008C77.9348 27.032 77.9348 27.056 77.9348 27.08C77.9348 27.08 77.8988 27.116 77.8268 27.188C77.7548 27.284 77.7068 27.332 77.6828 27.332C77.6348 27.38 77.5868 27.404 77.5388 27.404C77.5148 27.788 77.4908 28.16 77.4668 28.52C77.4668 28.904 77.4428 29.276 77.3948 29.636C77.3948 29.66 77.3708 29.672 77.3228 29.672C77.2748 29.672 77.2388 29.66 77.2148 29.636C77.1908 29.228 77.1788 28.94 77.1788 28.772C77.1788 28.628 77.1788 28.508 77.1788 28.412C77.1788 28.34 77.1668 28.22 77.1428 28.052C77.1188 27.884 77.0588 27.596 76.9628 27.188C76.8428 27.044 76.7228 26.888 76.6028 26.72C76.5788 26.696 76.5668 26.672 76.5668 26.648C76.5668 26.624 76.5548 26.6 76.5308 26.576L76.3868 26.36C76.3628 26.312 76.3508 26.264 76.3508 26.216C76.3508 26.192 76.3388 26.168 76.3148 26.144C76.3148 26.216 76.2908 26.252 76.2428 26.252C76.2428 26.252 76.1948 26.228 76.0988 26.18C76.0748 26.252 76.0388 26.324 75.9908 26.396C75.9428 26.468 75.8828 26.528 75.8108 26.576C75.7628 26.624 75.7268 26.648 75.7028 26.648C75.6548 26.696 75.6308 26.78 75.6308 26.9C75.6308 27.02 75.5948 27.068 75.5228 27.044C75.4508 27.02 75.4148 26.948 75.4148 26.828C75.4388 26.732 75.4268 26.648 75.3788 26.576L75.2348 26.432L75.0188 26.18C75.0188 26.204 75.0068 26.216 74.9828 26.216C75.0068 26.216 74.9588 26.18 74.8388 26.108C74.7428 26.06 74.6948 26.036 74.6948 26.036C74.6948 26.036 74.6348 26.06 74.5148 26.108C74.4188 26.18 74.3228 26.24 74.2268 26.288C74.1308 26.36 74.0348 26.36 73.9388 26.288C73.8428 26.24 73.7828 26.18 73.7588 26.108C73.7588 26.036 73.7348 25.952 73.6868 25.856C73.5668 25.76 73.4468 25.652 73.3268 25.532C73.2308 25.412 73.1348 25.28 73.0388 25.136C72.9428 24.968 72.8468 24.824 72.7508 24.704L72.5708 24.416C72.5228 24.344 72.4628 24.272 72.3908 24.2C72.3428 24.104 72.2948 24.02 72.2468 23.948C72.1988 23.876 72.1508 23.804 72.1028 23.732C72.0548 23.66 72.0068 23.576 71.9588 23.48L71.7428 23.156C71.5268 22.94 71.3108 22.676 71.0948 22.364C70.9028 22.052 70.6988 21.716 70.4828 21.356C70.2908 21.092 70.0868 20.792 69.8708 20.456C69.6548 20.096 69.4508 19.736 69.2588 19.376L67.8188 17.216C67.6268 16.976 67.4588 16.736 67.3148 16.496C67.2908 16.448 67.2668 16.4 67.2428 16.352C67.2188 16.304 67.1828 16.268 67.1348 16.244C67.0868 16.148 67.0628 16.1 67.0628 16.1C67.0148 16.028 66.9908 15.992 66.9908 15.992C66.9908 15.968 66.9908 16.016 66.9908 16.136V24.308C66.9908 24.452 66.9908 24.608 66.9908 24.776C67.0148 24.92 67.0148 25.064 66.9908 25.208C66.9908 25.16 66.9788 25.184 66.9548 25.28C66.9308 25.352 66.9308 25.376 66.9548 25.352C66.9548 25.376 66.9428 25.4 66.9188 25.424C66.9188 25.448 66.9068 25.46 66.8828 25.46C66.8828 25.46 66.8828 25.472 66.8828 25.496C66.8828 25.52 66.8708 25.532 66.8468 25.532C66.8468 25.532 66.8468 25.544 66.8468 25.568C66.7268 25.712 66.6068 25.82 66.4868 25.892C66.4388 25.94 66.4028 25.988 66.3788 26.036C66.3308 26.084 66.3068 26.132 66.3068 26.18L66.1628 26.432C66.1388 26.504 66.1028 26.564 66.0548 26.612C66.0308 26.684 65.9948 26.756 65.9468 26.828C65.7308 27.308 65.4908 27.788 65.2268 28.268L64.9028 28.988C64.9028 29.012 64.8908 29.024 64.8668 29.024C64.8668 29.024 64.8668 29.036 64.8668 29.06L64.7228 29.276L64.6148 29.384C64.6148 29.384 64.6028 29.384 64.5788 29.384C64.5788 29.384 64.5788 29.396 64.5788 29.42C64.5548 29.42 64.5188 29.444 64.4708 29.492C64.4468 29.948 64.4228 30.404 64.3988 30.86C64.3988 31.316 64.3748 31.784 64.3268 32.264C64.3028 32.336 64.2668 32.3 64.2188 32.156C64.1948 32.036 64.1828 31.94 64.1828 31.868C64.1348 31.46 64.1108 31.04 64.1108 30.608C64.1108 30.2 64.0868 29.792 64.0388 29.384C63.9908 29.36 63.9428 29.3 63.8948 29.204C63.8708 29.204 63.8468 29.192 63.8228 29.168L63.5708 28.736C63.5468 28.664 63.5108 28.592 63.4628 28.52C63.4388 28.448 63.4148 28.364 63.3908 28.268C63.3668 28.196 63.3428 28.124 63.3188 28.052C63.2948 27.98 63.2588 27.896 63.2108 27.8L62.8868 26.828C62.8628 26.78 62.8388 26.72 62.8148 26.648C62.8148 26.576 62.8028 26.516 62.7788 26.468C62.7308 26.708 62.7068 26.948 62.7068 27.188C62.7068 27.428 62.6828 27.68 62.6348 27.944C62.6108 27.968 62.5868 27.944 62.5628 27.872C62.5388 27.824 62.5148 27.788 62.4908 27.764C62.4428 27.716 62.3948 27.644 62.3468 27.548C62.2508 27.38 62.1548 27.212 62.0588 27.044C61.9868 26.876 61.8908 26.732 61.7708 26.612C61.7228 26.564 61.6868 26.54 61.6628 26.54C61.6388 26.612 61.5788 26.696 61.4828 26.792C61.4348 26.84 61.3628 26.876 61.2668 26.9C61.1948 26.948 61.1228 26.996 61.0508 27.044C60.9788 27.116 60.9188 27.188 60.8708 27.26C60.8228 27.356 60.7508 27.428 60.6548 27.476C60.5588 27.548 60.4508 27.56 60.3308 27.512C60.2348 27.416 60.1868 27.392 60.1868 27.44C60.1628 27.704 60.1868 28.124 60.2588 28.7C60.3308 29.276 60.3908 29.852 60.4388 30.428C60.5108 31.004 60.5228 31.436 60.4748 31.724C60.4508 32.036 60.3068 32.06 60.0428 31.796C59.7068 31.436 59.5388 30.956 59.5388 30.356C59.5628 29.756 59.6348 29.156 59.7548 28.556C59.8988 27.956 59.9588 27.476 59.9348 27.116L59.7908 26.9C59.7668 26.852 59.7308 26.78 59.6828 26.684C59.6588 26.612 59.6468 26.6 59.6468 26.648C59.5988 26.888 59.5868 27.128 59.6108 27.368C59.6588 27.608 59.6228 27.824 59.5028 28.016C59.4308 28.112 59.3948 28.088 59.3948 27.944C59.3948 27.824 59.4068 27.656 59.4308 27.44C59.4548 27.248 59.4548 27.092 59.4308 26.972L59.1788 25.964C59.0828 25.916 58.9988 25.868 58.9268 25.82C58.6628 25.628 58.5308 25.364 58.5308 25.028V1.772C58.5308 1.676 58.5548 1.556 58.6028 1.412C58.6748 1.196 58.7828 1.052 58.9268 0.979998C58.9748 0.931999 59.0708 0.883999 59.2148 0.835998C59.2868 0.811998 59.3948 0.799998 59.5388 0.799998H65.1908C65.5028 0.799998 65.7548 0.847998 65.9468 0.943999C66.1388 1.04 66.2828 1.148 66.3788 1.268C66.5708 1.436 66.7268 1.64 66.8468 1.88C66.9908 2.12 67.1228 2.348 67.2428 2.564L67.3508 2.744L67.4948 2.96C67.7588 3.224 67.9988 3.56 68.2148 3.968C68.4308 4.376 68.6468 4.784 68.8628 5.192L68.9348 5.372L70.1948 7.424C70.2188 7.424 70.2308 7.436 70.2308 7.46C70.5668 7.964 70.8908 8.492 71.2028 9.044C71.5388 9.572 71.8628 10.1 72.1748 10.628L72.6068 11.348L72.6428 11.384L72.7508 11.312V2.744C72.7508 2.576 72.7388 2.396 72.7148 2.204C72.7148 2.012 72.7268 1.832 72.7508 1.664C72.7508 1.544 72.7748 1.448 72.8228 1.376C72.8708 1.28 72.9068 1.22 72.9308 1.196C72.9548 1.124 73.0028 1.076 73.0748 1.052C73.0748 1.052 73.0988 1.028 73.1468 0.979998C73.3148 0.859998 73.4828 0.799998 73.6508 0.799998C73.7468 0.775999 73.8428 0.763999 73.9388 0.763999C74.0348 0.763999 74.1188 0.763999 74.1908 0.763999C74.3108 0.787998 74.4188 0.799998 74.5148 0.799998C74.6348 0.799998 74.7428 0.799998 74.8388 0.799998H79.8068C79.9268 0.799998 80.0468 0.799998 80.1668 0.799998C80.3108 0.775999 80.4428 0.787998 80.5628 0.835998C80.7308 0.907998 80.8748 1.004 80.9948 1.124C81.0668 1.22 81.1148 1.316 81.1388 1.412C81.1868 1.556 81.2108 1.676 81.2108 1.772C81.2348 1.94 81.2348 2.12 81.2108 2.312C81.2108 2.504 81.2108 2.672 81.2108 2.816V23.804C81.2348 24.044 81.2468 24.284 81.2468 24.524C81.2708 24.764 81.2588 24.992 81.2108 25.208ZM108.867 25.352C108.843 25.496 108.759 25.64 108.615 25.784C108.567 25.832 108.531 25.856 108.507 25.856C108.507 25.88 108.483 25.916 108.435 25.964C108.387 26.084 108.327 26.204 108.255 26.324C108.183 26.444 108.123 26.564 108.075 26.684L107.859 27.08C107.595 27.584 107.331 28.124 107.067 28.7C106.827 29.3 106.611 29.828 106.419 30.284C106.395 30.428 106.359 30.56 106.311 30.68C106.263 30.824 106.215 30.968 106.167 31.112L105.951 31.652C105.903 31.82 105.843 31.952 105.771 32.048C105.699 32.144 105.627 32.24 105.555 32.336L105.519 32.372C105.519 32.372 105.507 32.372 105.483 32.372C105.483 32.396 105.471 32.408 105.447 32.408C105.447 32.408 105.435 32.408 105.411 32.408C105.411 32.432 105.399 32.444 105.375 32.444C105.135 32.708 105.027 32.888 105.051 32.984C105.075 33.08 105.135 33.14 105.231 33.164C105.351 33.212 105.423 33.284 105.447 33.38C105.495 33.476 105.387 33.656 105.123 33.92C105.051 34.064 105.003 34.124 104.979 34.1C104.931 34.052 104.895 33.98 104.871 33.884C104.871 33.812 104.859 33.74 104.835 33.668C104.811 33.524 104.799 33.368 104.799 33.2C104.799 33.056 104.775 32.912 104.727 32.768C104.703 32.792 104.679 32.804 104.655 32.804C104.655 32.804 104.643 32.828 104.619 32.876C104.595 32.9 104.571 32.936 104.547 32.984C104.523 33.032 104.487 33.08 104.439 33.128C104.439 33.152 104.427 33.164 104.403 33.164C104.403 33.188 104.379 33.248 104.331 33.344C104.283 33.44 104.223 33.548 104.151 33.668C104.103 33.812 104.031 33.932 103.935 34.028C103.887 34.076 103.839 34.1 103.791 34.1C103.791 34.124 103.743 34.136 103.647 34.136C103.623 34.136 103.611 34.124 103.611 34.1C103.611 34.1 103.599 34.1 103.575 34.1C103.575 34.1 103.563 34.076 103.539 34.028C103.539 34.004 103.515 33.98 103.467 33.956C103.443 33.932 103.407 33.884 103.359 33.812C103.335 33.764 103.335 33.764 103.359 33.812C103.335 33.764 103.311 33.728 103.287 33.704C103.287 33.68 103.275 33.656 103.251 33.632L103.107 33.272C103.083 33.224 103.059 33.176 103.035 33.128C103.011 33.08 102.987 33.044 102.963 33.02L102.783 32.696C102.639 32.48 102.495 32.264 102.351 32.048C102.231 31.856 102.123 31.64 102.027 31.4L101.811 30.86C101.715 30.596 101.619 30.308 101.523 29.996C101.451 29.684 101.379 29.372 101.307 29.06C101.259 28.892 101.211 28.724 101.163 28.556C101.115 28.412 101.067 28.256 101.019 28.088L100.695 27.26C100.671 27.212 100.647 27.164 100.623 27.116C100.599 27.068 100.575 27.032 100.551 27.008C100.431 26.768 100.275 26.552 100.083 26.36C100.083 26.48 100.059 26.564 100.011 26.612C99.9872 26.636 99.9632 26.624 99.9392 26.576C99.9152 26.528 99.8912 26.492 99.8672 26.468L99.6152 26.216V26.252C99.7112 26.348 99.7952 26.444 99.8672 26.54C99.9632 26.636 99.8792 26.552 99.6152 26.288C99.5912 26.336 99.5792 26.396 99.5792 26.468C99.5792 26.54 99.5672 26.612 99.5432 26.684C99.5192 27.044 99.4952 27.512 99.4712 28.088C99.4712 28.664 99.4712 29.24 99.4712 29.816C99.4712 30.392 99.4472 30.86 99.3992 31.22C99.3992 31.244 99.3752 31.244 99.3272 31.22C99.2792 31.196 99.2552 31.172 99.2552 31.148C99.1352 30.38 99.0752 29.48 99.0752 28.448C99.0992 27.44 99.0272 26.564 98.8592 25.82C98.8112 25.772 98.7872 25.748 98.7872 25.748C98.7872 25.724 98.7752 25.712 98.7512 25.712C98.7512 25.712 98.7512 25.7 98.7512 25.676C98.7512 25.652 98.7392 25.64 98.7152 25.64L98.4632 25.316C98.4632 25.292 98.4512 25.28 98.4272 25.28C98.4032 25.232 98.3792 25.184 98.3552 25.136C98.3312 25.088 98.3072 25.04 98.2832 24.992C98.2592 24.992 98.2472 24.968 98.2472 24.92C98.2232 24.92 98.2112 24.92 98.2112 24.92C98.2112 24.896 98.2112 24.884 98.2112 24.884C98.0912 24.644 97.9592 24.404 97.8152 24.164C97.6712 23.9 97.5392 23.648 97.4192 23.408C97.2512 23.168 97.0832 22.892 96.9152 22.58C96.7472 22.268 96.5672 21.944 96.3752 21.608C96.3752 21.584 96.3632 21.572 96.3392 21.572C96.3392 21.548 96.3392 21.524 96.3392 21.5C96.0992 21.092 95.8712 20.684 95.6552 20.276C95.4392 19.868 95.2112 19.472 94.9712 19.088C94.8752 18.896 94.7672 18.704 94.6472 18.512C94.5512 18.32 94.4432 18.128 94.3232 17.936C94.2992 17.888 94.2752 17.84 94.2512 17.792C94.2272 17.744 94.1912 17.672 94.1432 17.576C94.1192 17.552 94.1072 17.528 94.1072 17.504L93.9992 17.612V24.884C93.9992 25.1 93.9872 25.256 93.9632 25.352C93.9872 25.328 93.9392 25.412 93.8192 25.604C93.9392 25.484 93.9392 25.496 93.8192 25.64C93.6992 25.76 93.6152 25.832 93.5672 25.856C93.5432 26.024 93.5192 26.192 93.4952 26.36C93.4952 26.528 93.4832 26.708 93.4592 26.9C93.4352 27.02 93.4112 27.14 93.3872 27.26C93.3872 27.38 93.3632 27.5 93.3152 27.62C93.2912 27.644 93.2672 27.68 93.2432 27.728C93.2432 27.8 93.2192 27.848 93.1712 27.872C93.1232 27.896 93.0752 27.86 93.0272 27.764C92.9792 27.692 92.9312 27.584 92.8832 27.44C92.8112 27.248 92.7632 27.116 92.7392 27.044C92.7152 26.996 92.6672 26.888 92.5952 26.72C92.5712 26.696 92.5352 26.636 92.4872 26.54C92.4632 26.444 92.4032 26.384 92.3072 26.36L92.1632 26.504C92.0192 26.696 91.8872 26.924 91.7672 27.188L91.6592 27.548C91.4432 28.076 91.2632 28.688 91.1192 29.384C90.9992 30.104 90.8552 30.74 90.6872 31.292C90.6632 31.316 90.6512 31.34 90.6512 31.364C90.6512 31.412 90.6392 31.46 90.6152 31.508C90.5672 31.748 90.5072 31.988 90.4352 32.228C90.3632 32.468 90.2672 32.696 90.1472 32.912C90.0992 33.056 90.0512 33.164 90.0032 33.236C89.9552 33.38 89.8712 33.464 89.7512 33.488C89.7272 33.512 89.6672 33.524 89.5712 33.524C89.5472 33.788 89.5712 34.208 89.6432 34.784C89.7392 35.36 89.8232 35.936 89.8952 36.512C89.9672 37.088 89.9792 37.544 89.9312 37.88C89.8832 38.24 89.7272 38.324 89.4632 38.132C89.1992 37.94 89.0432 37.64 88.9952 37.232C88.9472 36.824 88.9472 36.368 88.9952 35.864C89.0672 35.384 89.1392 34.916 89.2112 34.46C89.3072 34.004 89.3432 33.644 89.3192 33.38C89.3192 33.356 89.3072 33.344 89.2832 33.344C89.2832 33.344 89.2832 33.332 89.2832 33.308C89.2592 33.308 89.2352 33.284 89.2112 33.236C89.1872 33.188 89.1872 33.188 89.2112 33.236C89.2112 33.236 89.1632 33.164 89.0672 33.02C88.9952 32.852 88.9232 32.684 88.8512 32.516C88.7792 32.372 88.7192 32.216 88.6712 32.048C88.5752 31.76 88.4792 31.472 88.3832 31.184C88.2872 30.896 88.1792 30.608 88.0592 30.32C87.8912 29.84 87.7112 29.384 87.5192 28.952C87.3512 28.544 87.1352 28.04 86.8712 27.44C86.8232 27.344 86.7752 27.248 86.7272 27.152C86.7032 27.08 86.6672 26.996 86.6192 26.9C86.5472 26.732 86.4632 26.564 86.3672 26.396C86.3192 26.3 86.2952 26.252 86.2952 26.252C86.2472 26.156 86.2232 26.108 86.2232 26.108C86.1992 26.06 86.1632 26.024 86.1152 26C86.0672 26 85.9712 25.988 85.8272 25.964C85.7312 25.916 85.6472 25.868 85.5752 25.82C85.3112 25.628 85.1792 25.364 85.1792 25.028V2.78C85.1792 2.66 85.1672 2.54 85.1432 2.42C85.1432 2.276 85.1432 2.144 85.1432 2.024C85.1432 1.952 85.1432 1.892 85.1432 1.844C85.1672 1.772 85.1792 1.712 85.1792 1.664C85.1792 1.592 85.2032 1.508 85.2512 1.412C85.3232 1.196 85.4312 1.052 85.5752 0.979998L85.7912 0.872C85.8152 0.847998 85.8632 0.835998 85.9352 0.835998C86.1992 0.763999 86.4872 0.739999 86.7992 0.763999C87.1112 0.787998 87.3872 0.799998 87.6272 0.799998L92.7752 0.763999C92.9192 0.763999 93.0152 0.775999 93.0632 0.799998C93.2552 0.799998 93.4352 0.859998 93.6032 0.979998L93.8192 1.196C93.8672 1.244 93.9152 1.34 93.9632 1.484V1.556C93.9872 1.58 93.9992 1.64 93.9992 1.736C94.0232 1.808 94.0352 1.88 94.0352 1.952C94.0352 2.024 94.0352 2.084 94.0352 2.132V2.312C94.0352 2.504 94.0232 2.708 93.9992 2.924C93.9992 3.14 93.9992 3.344 93.9992 3.536V8.9L94.1072 8.72C94.1072 8.696 94.1072 8.684 94.1072 8.684C94.1312 8.66 94.1432 8.636 94.1432 8.612C94.1912 8.564 94.2152 8.528 94.2152 8.504L94.3232 8.324L94.5392 7.892C94.8032 7.436 95.0672 6.956 95.3312 6.452C95.6192 5.924 95.9072 5.42 96.1952 4.94C96.2672 4.82 96.3272 4.688 96.3752 4.544C96.4472 4.4 96.5192 4.268 96.5912 4.148C96.6872 3.98 96.7712 3.824 96.8432 3.68C96.9392 3.512 97.0352 3.368 97.1312 3.248C97.1312 3.224 97.1312 3.212 97.1312 3.212C97.1552 3.188 97.1672 3.176 97.1672 3.176L97.7072 2.204C97.8272 2.012 97.9352 1.82 98.0312 1.628C98.1512 1.412 98.2952 1.244 98.4632 1.124C98.6552 0.955999 98.9072 0.859999 99.2192 0.835998C99.3392 0.811998 99.4592 0.799998 99.5792 0.799998C99.6992 0.775999 99.8072 0.763999 99.9032 0.763999C99.9752 0.763999 100.035 0.775999 100.083 0.799998C100.155 0.799998 100.215 0.799998 100.263 0.799998H106.887C107.007 0.799998 107.127 0.799998 107.247 0.799998C107.391 0.775999 107.523 0.775999 107.643 0.799998C107.835 0.847999 107.991 0.955999 108.111 1.124C108.231 1.268 108.279 1.436 108.255 1.628C108.255 1.7 108.231 1.808 108.183 1.952L107.895 2.456C107.871 2.456 107.859 2.468 107.859 2.492C107.811 2.54 107.787 2.576 107.787 2.6C107.691 2.744 107.595 2.888 107.499 3.032C107.427 3.176 107.355 3.32 107.283 3.464L105.015 7.244C104.871 7.484 104.751 7.724 104.655 7.964C104.487 8.3 104.319 8.624 104.151 8.936C103.983 9.248 103.803 9.536 103.611 9.8C103.419 10.112 103.239 10.352 103.071 10.52C103.023 10.616 102.975 10.688 102.927 10.736C102.879 10.832 102.819 10.94 102.747 11.06C102.675 11.18 102.603 11.3 102.531 11.42C102.483 11.516 102.423 11.612 102.351 11.708C102.279 11.804 102.219 11.912 102.171 12.032L101.847 12.572L101.811 12.608C101.835 12.56 101.811 12.596 101.739 12.716C101.691 12.812 101.667 12.86 101.667 12.86L101.847 13.148C101.871 13.172 101.883 13.196 101.883 13.22C101.883 13.244 101.895 13.268 101.919 13.292C101.943 13.316 101.967 13.352 101.991 13.4C102.015 13.424 102.063 13.496 102.135 13.616C102.135 13.664 102.159 13.712 102.207 13.76C102.255 13.808 102.279 13.856 102.279 13.904L102.675 14.552C102.795 14.72 102.903 14.888 102.999 15.056C103.095 15.224 103.191 15.392 103.287 15.56C103.479 15.752 103.635 15.956 103.755 16.172C104.019 16.412 104.259 16.76 104.475 17.216C104.691 17.648 104.907 18.104 105.123 18.584C105.195 18.728 105.267 18.872 105.339 19.016C105.411 19.16 105.495 19.304 105.591 19.448L107.427 22.58C107.547 22.748 107.655 22.928 107.751 23.12C107.871 23.288 107.979 23.468 108.075 23.66C108.123 23.708 108.207 23.84 108.327 24.056C108.375 24.152 108.435 24.248 108.507 24.344C108.579 24.44 108.639 24.548 108.687 24.668L108.795 24.848C108.795 24.872 108.795 24.896 108.795 24.92C108.819 24.944 108.831 24.98 108.831 25.028C108.855 25.052 108.867 25.112 108.867 25.208V25.352ZM131.614 21.212C131.614 21.692 131.626 22.256 131.65 22.904C131.674 23.528 131.674 24.104 131.65 24.632C131.65 24.752 131.65 24.872 131.65 24.992C131.65 25.112 131.626 25.232 131.578 25.352C131.578 25.376 131.566 25.4 131.542 25.424C131.518 25.52 131.47 25.604 131.398 25.676C131.326 25.724 131.254 25.772 131.182 25.82C131.158 25.868 131.11 25.916 131.038 25.964C130.99 26.012 130.942 26.072 130.894 26.144C130.87 26.192 130.834 26.252 130.786 26.324C130.738 26.396 130.69 26.468 130.642 26.54C130.618 26.564 130.594 26.588 130.57 26.612C130.546 26.636 130.522 26.672 130.498 26.72C130.378 26.864 130.246 27.008 130.102 27.152C129.982 27.296 129.862 27.452 129.742 27.62L129.49 27.98C129.394 28.1 129.31 28.22 129.238 28.34C129.166 28.46 129.082 28.58 128.986 28.7C128.938 28.748 128.914 28.772 128.914 28.772C128.842 28.868 128.71 28.976 128.518 29.096C128.494 29.12 128.47 29.132 128.446 29.132C128.422 29.156 128.386 29.18 128.338 29.204C128.29 29.228 128.23 29.276 128.158 29.348C128.086 29.42 128.014 29.468 127.942 29.492C127.846 29.516 127.738 29.492 127.618 29.42C127.522 29.372 127.438 29.324 127.366 29.276C127.318 29.228 127.282 29.204 127.258 29.204C127.306 29.156 127.27 29.18 127.15 29.276C127.054 29.372 126.982 29.444 126.934 29.492C126.886 29.996 126.862 30.5 126.862 31.004C126.862 31.532 126.838 32.06 126.79 32.588C126.766 32.804 126.79 33.068 126.862 33.38C126.934 33.692 126.862 33.872 126.646 33.92C126.43 33.944 126.346 33.788 126.394 33.452C126.466 33.116 126.502 32.84 126.502 32.624C126.478 32.072 126.454 31.532 126.43 31.004C126.43 30.476 126.406 29.948 126.358 29.42C126.334 29.396 126.322 29.372 126.322 29.348C126.298 29.348 126.274 29.336 126.25 29.312L126.07 29.024C125.974 28.832 125.866 28.628 125.746 28.412C125.65 28.196 125.542 27.992 125.422 27.8L124.882 26.864C124.858 26.768 124.822 26.672 124.774 26.576C124.726 26.504 124.678 26.408 124.63 26.288L124.594 26.252C124.57 26.396 124.558 26.54 124.558 26.684C124.558 26.852 124.534 27.008 124.486 27.152C124.462 27.176 124.438 27.224 124.414 27.296C124.39 27.368 124.366 27.392 124.342 27.368C124.318 27.248 124.294 27.116 124.27 26.972C124.27 26.852 124.27 26.744 124.27 26.648C124.174 26.84 124.114 26.972 124.09 27.044C124.018 27.212 123.946 27.38 123.874 27.548C123.802 27.74 123.718 27.932 123.622 28.124C123.55 28.292 123.43 28.508 123.262 28.772C123.262 28.796 123.25 28.808 123.226 28.808C123.202 28.856 123.142 28.928 123.046 29.024C122.998 29.072 122.962 29.096 122.938 29.096C122.89 29.264 122.854 29.432 122.83 29.6C122.83 29.792 122.818 29.984 122.794 30.176C122.77 30.296 122.746 30.404 122.722 30.5C122.698 30.62 122.674 30.74 122.65 30.86C122.626 30.908 122.59 30.98 122.542 31.076C122.518 31.196 122.494 31.232 122.47 31.184C122.422 30.92 122.434 30.62 122.506 30.284C122.578 29.972 122.518 29.732 122.326 29.564C122.254 29.492 122.218 29.528 122.218 29.672C122.218 29.816 122.23 29.996 122.254 30.212C122.302 30.428 122.326 30.608 122.326 30.752C122.326 30.92 122.278 30.968 122.182 30.896C121.99 30.728 121.942 30.476 122.038 30.14C122.134 29.828 122.134 29.552 122.038 29.312C122.014 29.192 122.002 29.264 122.002 29.528C122.026 29.792 121.99 29.972 121.894 30.068C121.87 30.116 121.846 30.068 121.822 29.924C121.822 29.804 121.798 29.708 121.75 29.636C121.726 29.588 121.678 29.48 121.606 29.312C121.558 29.144 121.474 29.096 121.354 29.168C121.354 29.168 121.342 29.168 121.318 29.168C121.318 29.168 121.318 29.18 121.318 29.204C121.27 29.252 121.186 29.348 121.066 29.492C120.946 29.66 120.802 29.816 120.634 29.96C120.634 29.96 120.586 29.984 120.49 30.032C120.466 30.296 120.49 30.656 120.562 31.112C120.634 31.568 120.706 32.012 120.778 32.444C120.85 32.9 120.862 33.272 120.814 33.56C120.766 33.848 120.61 33.968 120.346 33.92C120.082 33.872 119.926 33.692 119.878 33.38C119.83 33.068 119.83 32.696 119.878 32.264C119.95 31.856 120.022 31.436 120.094 31.004C120.19 30.596 120.226 30.248 120.202 29.96C120.178 29.96 120.166 29.948 120.166 29.924C120.166 29.924 120.154 29.924 120.13 29.924C120.106 29.924 120.094 29.912 120.094 29.888C120.046 29.84 119.998 29.768 119.95 29.672C119.902 29.624 119.854 29.552 119.806 29.456C119.686 29.168 119.566 28.856 119.446 28.52L118.906 27.44C118.882 27.392 118.858 27.344 118.834 27.296C118.834 27.248 118.81 27.2 118.762 27.152C118.642 27.104 118.51 27.056 118.366 27.008C118.246 26.96 118.126 26.912 118.006 26.864C118.054 26.816 118.054 26.768 118.006 26.72C117.982 26.744 117.97 26.768 117.97 26.792C117.97 26.816 117.97 26.828 117.97 26.828C117.922 26.828 117.85 26.804 117.754 26.756C117.754 26.756 117.742 26.756 117.718 26.756C117.718 26.756 117.718 26.744 117.718 26.72C117.694 26.744 117.67 26.768 117.646 26.792C117.622 26.84 117.598 26.876 117.574 26.9C117.43 27.092 117.286 27.26 117.142 27.404L117.07 27.476C117.07 27.476 117.058 27.476 117.034 27.476C117.034 27.476 117.034 27.488 117.034 27.512C117.01 27.512 116.986 27.512 116.962 27.512C116.962 27.536 116.95 27.548 116.926 27.548C116.902 27.908 116.878 28.412 116.854 29.06C116.854 29.732 116.842 30.392 116.818 31.04C116.818 31.712 116.794 32.228 116.746 32.588C116.746 32.612 116.722 32.636 116.674 32.66C116.626 32.708 116.602 32.72 116.602 32.696C116.458 32.432 116.41 32.048 116.458 31.544C116.506 31.064 116.566 30.548 116.638 29.996C116.734 29.468 116.77 28.952 116.746 28.448C116.722 27.968 116.578 27.596 116.314 27.332L115.81 26.684C115.786 26.636 115.75 26.588 115.702 26.54C115.678 26.492 115.642 26.456 115.594 26.432C115.546 26.336 115.462 26.228 115.342 26.108C115.342 26.132 115.33 26.144 115.306 26.144C115.234 26.24 115.138 26.324 115.018 26.396L114.766 26.504C114.742 26.504 114.73 26.504 114.73 26.504C114.73 26.528 114.718 26.54 114.694 26.54C114.694 26.588 114.694 26.66 114.694 26.756C114.694 26.876 114.67 27.032 114.622 27.224L114.334 29.06C114.31 29.228 114.286 29.384 114.262 29.528C114.238 29.672 114.202 29.816 114.154 29.96C114.13 30.104 114.106 30.308 114.082 30.572C114.058 30.836 114.034 30.908 114.01 30.788C113.842 30.524 113.77 30.188 113.794 29.78C113.818 29.372 113.866 28.976 113.938 28.592C114.034 28.232 114.07 27.944 114.046 27.728C114.022 27.512 113.878 27.452 113.614 27.548C113.278 27.62 112.99 27.572 112.75 27.404C112.702 27.356 112.654 27.308 112.606 27.26C112.558 27.212 112.51 27.176 112.462 27.152C112.438 27.104 112.402 27.044 112.354 26.972C112.33 26.924 112.318 26.924 112.318 26.972C112.294 27.212 112.294 27.524 112.318 27.908C112.366 28.316 112.402 28.7 112.426 29.06C112.45 29.444 112.45 29.72 112.426 29.888C112.402 30.08 112.318 30.08 112.174 29.888C111.958 29.6 111.85 29.264 111.85 28.88C111.874 28.52 111.922 28.136 111.994 27.728C112.09 27.344 112.102 26.972 112.03 26.612C112.006 26.444 111.994 26.456 111.994 26.648C112.018 26.864 112.018 27.116 111.994 27.404C111.994 27.692 111.958 27.908 111.886 28.052C111.814 28.22 111.778 28.136 111.778 27.8C111.802 27.464 111.814 27.212 111.814 27.044L111.562 25.964C111.466 25.916 111.382 25.868 111.31 25.82C111.046 25.628 110.914 25.364 110.914 25.028V2.348C110.914 2.156 110.914 1.964 110.914 1.772C110.914 1.556 110.974 1.364 111.094 1.196C111.166 1.052 111.31 0.943999 111.526 0.872C111.574 0.847998 111.622 0.835998 111.67 0.835998C111.742 0.811998 111.826 0.799998 111.922 0.799998H129.49C129.73 0.799998 129.982 0.799998 130.246 0.799998C130.51 0.775999 130.738 0.835999 130.93 0.979998L131.146 1.196C131.266 1.364 131.326 1.544 131.326 1.736V5.984C131.35 6.08 131.362 6.2 131.362 6.344C131.362 6.464 131.362 6.584 131.362 6.704C131.362 6.824 131.338 6.98 131.29 7.172C131.29 7.196 131.278 7.22 131.254 7.244C131.254 7.244 131.254 7.256 131.254 7.28C131.23 7.28 131.218 7.292 131.218 7.316C131.17 7.364 131.146 7.388 131.146 7.388C131.122 7.436 131.038 7.52 130.894 7.64C130.75 7.76 130.666 7.832 130.642 7.856C130.594 7.904 130.546 7.94 130.498 7.964C130.402 8.012 130.354 8.036 130.354 8.036C130.354 8.012 130.354 7.988 130.354 7.964C130.354 7.964 130.33 7.952 130.282 7.928C130.234 7.88 130.126 7.868 129.958 7.892C129.814 7.94 129.694 7.964 129.598 7.964C129.43 7.988 129.262 8 129.094 8C128.95 8 128.794 8.024 128.626 8.072C128.458 8.12 128.302 8.192 128.158 8.288C128.038 8.36 127.906 8.42 127.762 8.468C127.642 8.492 127.522 8.528 127.402 8.576C127.282 8.6 127.162 8.636 127.042 8.684C126.922 8.708 126.802 8.768 126.682 8.864C126.562 8.936 126.442 8.984 126.322 9.008C126.154 9.032 125.962 8.984 125.746 8.864C125.674 8.792 125.614 8.756 125.566 8.756C125.542 8.756 125.53 8.756 125.53 8.756C125.506 8.828 125.458 8.876 125.386 8.9C125.29 8.996 125.17 9.092 125.026 9.188C124.906 9.26 124.774 9.32 124.63 9.368C124.462 9.44 124.306 9.464 124.162 9.44C124.042 9.392 123.898 9.356 123.73 9.332C123.634 9.308 123.526 9.308 123.406 9.332C123.286 9.332 123.166 9.32 123.046 9.296C122.806 9.248 122.578 9.164 122.362 9.044C122.146 8.924 121.93 8.804 121.714 8.684C121.522 8.564 121.306 8.468 121.066 8.396C120.85 8.3 120.634 8.216 120.418 8.144L119.554 7.82V9.656L119.698 10.088H128.122C128.386 10.088 128.698 10.076 129.058 10.052C129.418 10.028 129.73 10.076 129.994 10.196C130.018 10.196 130.042 10.208 130.066 10.232C130.21 10.328 130.306 10.412 130.354 10.484C130.426 10.58 130.474 10.688 130.498 10.808C130.522 10.928 130.546 11.048 130.57 11.168C130.57 11.312 130.558 11.468 130.534 11.636C130.534 11.78 130.534 11.924 130.534 12.068V15.416C130.534 15.512 130.534 15.608 130.534 15.704C130.558 15.776 130.558 15.848 130.534 15.92C130.534 15.968 130.51 16.04 130.462 16.136C130.462 16.16 130.45 16.172 130.426 16.172C130.426 16.172 130.426 16.184 130.426 16.208C130.33 16.4 130.162 16.556 129.922 16.676C129.898 16.676 129.886 16.688 129.886 16.712C129.886 16.712 129.874 16.712 129.85 16.712C129.706 16.808 129.55 16.88 129.382 16.928C129.238 16.952 129.106 16.988 128.986 17.036C128.794 17.132 128.602 17.252 128.41 17.396C128.218 17.516 128.014 17.6 127.798 17.648C127.678 17.672 127.546 17.696 127.402 17.72C127.258 17.72 127.126 17.744 127.006 17.792C126.886 17.816 126.766 17.852 126.646 17.9C126.526 17.948 126.406 17.996 126.286 18.044C126.07 18.116 125.854 18.152 125.638 18.152C125.422 18.152 125.218 18.164 125.026 18.188H124.846C124.798 18.188 124.75 18.2 124.702 18.224C124.654 18.224 124.606 18.212 124.558 18.188C124.414 18.164 124.282 18.128 124.162 18.08C124.066 18.008 123.958 17.96 123.838 17.936C123.622 17.888 123.406 17.912 123.19 18.008C122.974 18.08 122.758 18.092 122.542 18.044C122.374 17.996 122.206 17.912 122.038 17.792C121.894 17.648 121.726 17.516 121.534 17.396C121.342 17.3 121.138 17.204 120.922 17.108C120.706 17.012 120.49 16.928 120.274 16.856C120.322 16.856 120.226 16.832 119.986 16.784C119.746 16.736 119.602 16.712 119.554 16.712V18.548L119.698 18.98H130.642C130.786 18.98 130.93 19.016 131.074 19.088C131.122 19.088 131.182 19.124 131.254 19.196C131.302 19.22 131.338 19.244 131.362 19.268C131.386 19.292 131.41 19.328 131.434 19.376C131.482 19.424 131.53 19.52 131.578 19.664C131.602 19.736 131.614 19.844 131.614 19.988V21.212ZM157.317 3.932L155.265 7.964C155.121 8.276 154.977 8.6 154.833 8.936C154.713 9.248 154.581 9.56 154.437 9.872C154.221 10.448 154.005 10.976 153.789 11.456C153.573 11.912 153.357 12.248 153.141 12.464C153.093 12.512 153.069 12.56 153.069 12.608C152.973 12.776 152.877 12.932 152.781 13.076C152.685 13.22 152.589 13.34 152.493 13.436L152.277 13.904C152.229 13.952 152.181 14.048 152.133 14.192L152.025 14.408C152.025 14.432 152.013 14.444 151.989 14.444C151.989 14.444 151.989 14.456 151.989 14.48C151.869 14.768 151.737 15.044 151.593 15.308C151.449 15.548 151.317 15.776 151.197 15.992C151.173 16.088 151.125 16.184 151.053 16.28C151.005 16.376 150.969 16.448 150.945 16.496V16.568C150.921 16.616 150.885 16.676 150.837 16.748C150.813 16.82 150.777 16.88 150.729 16.928L150.225 17.936V24.632C150.273 24.824 150.273 24.992 150.225 25.136C150.225 25.208 150.201 25.292 150.153 25.388L150.045 25.604C150.237 25.412 150.321 25.328 150.297 25.352C150.297 25.376 150.237 25.448 150.117 25.568C150.021 25.664 149.925 25.748 149.829 25.82C149.805 25.82 149.769 25.844 149.721 25.892C149.673 25.94 149.649 25.964 149.649 25.964L149.433 26.288C149.409 26.408 149.325 26.54 149.181 26.684L149.073 26.792C149.073 26.792 149.061 26.792 149.037 26.792C149.037 26.792 149.037 26.804 149.037 26.828C149.013 26.828 149.001 26.828 149.001 26.828C149.001 26.852 148.989 26.864 148.965 26.864C148.941 26.96 148.917 27.056 148.893 27.152C148.893 27.272 148.869 27.38 148.821 27.476C148.797 27.5 148.761 27.572 148.713 27.692C148.689 27.812 148.629 27.824 148.533 27.728C148.461 27.656 148.401 27.536 148.353 27.368C148.329 27.224 148.293 27.116 148.245 27.044C148.197 26.972 148.125 26.888 148.029 26.792C147.933 26.744 147.849 26.66 147.777 26.54C147.705 26.444 147.645 26.384 147.597 26.36C147.597 26.48 147.573 26.564 147.525 26.612C147.501 26.636 147.477 26.624 147.453 26.576C147.429 26.528 147.405 26.492 147.381 26.468L147.237 26.252C147.213 26.3 147.177 26.348 147.129 26.396C147.105 26.444 147.081 26.492 147.057 26.54C147.033 26.612 146.997 26.684 146.949 26.756C146.901 26.852 146.841 26.948 146.769 27.044C146.721 27.164 146.649 27.284 146.553 27.404C146.505 27.476 146.445 27.524 146.373 27.548C146.325 27.596 146.277 27.644 146.229 27.692C146.205 27.812 146.181 27.932 146.157 28.052C146.133 28.196 146.109 28.328 146.085 28.448C146.061 28.544 146.037 28.64 146.013 28.736C146.013 28.856 145.989 28.976 145.941 29.096C145.917 29.192 145.893 29.336 145.869 29.528C145.845 29.72 145.809 29.768 145.761 29.672C145.497 29.408 145.377 29.288 145.401 29.312C145.425 29.336 145.497 29.432 145.617 29.6C145.737 29.792 145.809 29.972 145.833 30.14C145.857 30.332 145.737 30.44 145.473 30.464C145.233 30.464 145.113 30.332 145.113 30.068C145.137 29.804 145.185 29.492 145.257 29.132C145.353 28.772 145.377 28.472 145.329 28.232C145.329 28.208 145.317 28.196 145.293 28.196C145.269 28.22 145.245 28.22 145.221 28.196C145.149 28.196 145.101 28.184 145.077 28.16C144.885 28.112 144.753 28.064 144.681 28.016C144.609 27.968 144.525 27.896 144.429 27.8C144.405 27.776 144.381 27.728 144.357 27.656C144.333 27.608 144.309 27.608 144.285 27.656C144.261 27.848 144.261 28.124 144.285 28.484C144.309 28.844 144.321 29.132 144.321 29.348C144.345 29.588 144.297 29.624 144.177 29.456C143.985 29.144 143.925 28.784 143.997 28.376C144.069 27.992 144.081 27.608 144.033 27.224C144.033 27.176 144.021 27.2 143.997 27.296C143.997 27.416 143.985 27.524 143.961 27.62C143.961 27.74 143.949 27.776 143.925 27.728C143.853 27.56 143.817 27.38 143.817 27.188C143.841 27.02 143.829 26.852 143.781 26.684C143.709 26.636 143.637 26.576 143.565 26.504C143.517 26.456 143.469 26.408 143.421 26.36C143.421 26.408 143.409 26.456 143.385 26.504C143.385 26.552 143.373 26.6 143.349 26.648H143.061C142.797 26.624 142.593 26.516 142.449 26.324C142.425 26.42 142.413 26.504 142.413 26.576C142.413 26.672 142.389 26.768 142.341 26.864C142.293 26.912 142.245 26.888 142.197 26.792C142.149 26.696 142.125 26.612 142.125 26.54L141.873 25.964C141.825 25.94 141.777 25.916 141.729 25.892C141.681 25.844 141.633 25.808 141.585 25.784C141.345 25.592 141.225 25.34 141.225 25.028V17.936L140.937 17.396L140.829 17.18C140.805 17.132 140.781 17.084 140.757 17.036C140.733 16.988 140.709 16.94 140.685 16.892C140.661 16.868 140.613 16.784 140.541 16.64C140.541 16.592 140.517 16.544 140.469 16.496L139.929 15.416C139.833 15.296 139.725 15.14 139.605 14.948C139.485 14.732 139.353 14.492 139.209 14.228C139.161 14.132 139.113 14.036 139.065 13.94C139.017 13.844 138.969 13.748 138.921 13.652C138.657 13.148 138.369 12.56 138.057 11.888C137.745 11.192 137.421 10.484 137.085 9.764L134.601 4.868C134.505 4.676 134.409 4.484 134.313 4.292C134.217 4.076 134.109 3.86 133.989 3.644L133.557 2.78C133.533 2.708 133.497 2.636 133.449 2.564C133.401 2.468 133.353 2.384 133.305 2.312C133.305 2.312 133.281 2.252 133.233 2.132C133.185 2.012 133.149 1.94 133.125 1.916C133.077 1.82 133.053 1.712 133.053 1.592C133.053 1.376 133.137 1.184 133.305 1.016C133.377 0.943999 133.437 0.895999 133.485 0.872C133.557 0.847998 133.617 0.835998 133.665 0.835998C133.713 0.811998 133.797 0.799998 133.917 0.799998H139.605C139.773 0.799998 139.941 0.799998 140.109 0.799998C140.301 0.775999 140.481 0.775999 140.649 0.799998C140.841 0.799998 141.021 0.835999 141.189 0.907999C141.357 0.955998 141.501 1.028 141.621 1.124C141.765 1.22 141.909 1.364 142.053 1.556C142.245 1.868 142.413 2.192 142.557 2.528C142.701 2.84 142.857 3.152 143.025 3.464C143.169 3.704 143.301 3.968 143.421 4.256C143.565 4.544 143.709 4.832 143.853 5.12L145.293 8.036C145.341 8.084 145.377 8.144 145.401 8.216C145.425 8.264 145.449 8.324 145.473 8.396C145.473 8.444 145.497 8.492 145.545 8.54C145.569 8.564 145.581 8.6 145.581 8.648C145.581 8.672 145.593 8.696 145.617 8.72L145.725 8.828L145.797 8.792C145.797 8.768 145.809 8.744 145.833 8.72C145.857 8.696 145.869 8.672 145.869 8.648C145.869 8.6 145.881 8.564 145.905 8.54C146.025 8.348 146.121 8.156 146.193 7.964L146.769 6.812C146.961 6.428 147.153 6.044 147.345 5.66C147.537 5.276 147.717 4.892 147.885 4.508L149.001 2.348C149.097 2.156 149.181 1.976 149.253 1.808C149.349 1.616 149.469 1.448 149.613 1.304C149.733 1.184 149.889 1.076 150.081 0.979998C150.273 0.859998 150.513 0.799998 150.801 0.799998C150.897 0.775999 151.053 0.775999 151.269 0.799998C151.485 0.799998 151.689 0.799998 151.881 0.799998H157.029C157.149 0.799998 157.269 0.799998 157.389 0.799998C157.533 0.775999 157.665 0.775999 157.785 0.799998C157.881 0.823998 157.977 0.871998 158.073 0.943999C158.217 1.04 158.313 1.184 158.361 1.376C158.385 1.424 158.397 1.496 158.397 1.592C158.397 1.712 158.373 1.82 158.325 1.916C158.301 2.012 158.253 2.12 158.181 2.24C158.109 2.336 158.049 2.444 158.001 2.564C157.977 2.588 157.929 2.672 157.857 2.816C157.761 3.008 157.677 3.2 157.605 3.392C157.533 3.584 157.437 3.764 157.317 3.932Z" fill="url(#paint0_linear_335_3)"/>
<defs>
<linearGradient id="paint0_linear_335_3" x1="-1" y1="39" x2="9.27671" y2="-32.8454" gradientUnits="userSpaceOnUse">
<stop stop-color="#2600FC"/>
<stop offset="1" stop-color="#FF00EA"/>
</linearGradient>
</defs>
</svg>
