<svg width="50" height="50" viewBox="0 0 50 50" fill="none" xmlns="http://www.w3.org/2000/svg">
<g clip-path="url(#clip0_238_4215)">
<path d="M10.2417 16.3472H1.48418C0.664551 16.3472 0 17.0117 0 17.8313V47.5499C0 48.3695 0.664551 49.0341 1.48418 49.0341H10.2418C11.0614 49.0341 11.726 48.3695 11.726 47.5499V17.8313C11.7259 17.0117 11.0614 16.3472 10.2417 16.3472Z" fill="black"/>
<path d="M46.3643 21.127C43.798 18 40.1941 16.3472 35.9423 16.3472C33.6401 16.3472 31.6041 16.8313 29.8567 17.7905C29.8351 16.9897 29.1792 16.3472 28.3731 16.3472H19.6155C18.7959 16.3472 18.1313 17.0117 18.1313 17.8313V47.5498C18.1313 48.3694 18.7959 49.034 19.6155 49.034H28.3731C29.1928 49.034 29.8573 48.3694 29.8573 47.5498V32.2814C29.8573 29.9609 31.7452 28.073 34.0656 28.073C36.3861 28.073 38.2741 29.9609 38.2741 32.2814V47.5498C38.2741 48.3694 38.9387 49.034 39.7583 49.034H48.5159C49.3355 49.034 50.0001 48.3694 50.0001 47.5498V32.2814C50 27.9451 48.7088 23.9836 46.3643 21.127Z" fill="black"/>
<path d="M5.86299 0.96582C2.63018 0.96582 0 3.5959 0 6.82871C0 10.0615 2.63018 12.6916 5.86299 12.6916C9.0958 12.6916 11.726 10.0615 11.726 6.82871C11.7259 3.5959 9.0958 0.96582 5.86299 0.96582Z" fill="black"/>
</g>
<defs>
<clipPath id="clip0_238_4215">
<rect width="50" height="50" fill="white"/>
</clipPath>
</defs>
</svg>
