<svg width="50" height="50" viewBox="0 0 50 50" fill="none" xmlns="http://www.w3.org/2000/svg">
<g clip-path="url(#clip0_238_4526)">
<path d="M19.6448 26.8428H18.8808H11.8356V32.4697H19.6448C21.1961 32.4697 22.4582 31.2076 22.4582 29.6562C22.4582 28.1049 21.1961 26.8428 19.6448 26.8428Z" fill="black"/>
<path d="M35.6239 23.9829C33.7455 23.9829 32.6713 25.3252 32.2821 26.9606H38.9656C38.5764 25.3253 37.5023 23.9829 35.6239 23.9829Z" fill="black"/>
<path d="M18.8808 18.9692H11.8356V23.8902H18.8808C20.2374 23.8902 21.3413 22.7864 21.3413 21.4297C21.3413 20.073 20.2376 18.9692 18.8808 18.9692Z" fill="black"/>
<path d="M42.7655 0H7.23447C3.24541 0 0 3.24541 0 7.23447V42.7655C0 46.7546 3.24541 50 7.23447 50H42.7655C46.7547 50 50 46.7546 50 42.7655V7.23447C50 3.24541 46.7547 0 42.7655 0ZM31.8346 16.0165H39.4132C40.2285 16.0165 40.8896 16.6775 40.8896 17.4929C40.8896 18.3082 40.2285 18.9692 39.4132 18.9692H31.8346C31.0192 18.9692 30.3582 18.3082 30.3582 17.4929C30.3582 16.6775 31.0192 16.0165 31.8346 16.0165ZM19.6447 35.4227H10.3592C9.54385 35.4227 8.88281 34.7616 8.88281 33.9463V17.4929C8.88281 16.6775 9.54385 16.0165 10.3592 16.0165H18.8808C21.8655 16.0165 24.2939 18.4449 24.2939 21.4297C24.2939 22.7769 23.7981 24.0095 22.9811 24.9579C24.45 26.0041 25.4109 27.7196 25.4109 29.6563C25.4109 32.8358 22.8242 35.4227 19.6447 35.4227ZM40.7303 29.9075C40.6939 29.9112 40.6548 29.9136 40.611 29.9136H32.3516C32.9446 31.7256 34.522 32.9635 35.6238 32.9635C37.1171 32.9635 37.5613 32.6171 38.2874 31.7667C38.8168 31.1467 39.7487 31.073 40.3689 31.6026C40.9889 32.132 41.0623 33.064 40.5329 33.684C39.3563 35.062 38.1246 35.9161 35.6238 35.9161C34.0498 35.9161 32.4196 35.0865 31.1511 33.6401C29.8674 32.1764 29.1604 30.3285 29.1604 28.4371C29.1604 26.4668 29.7425 24.6509 30.7992 23.3239C31.9771 21.845 33.6905 21.0304 35.6237 21.0304C37.5569 21.0304 39.2703 21.8449 40.4482 23.3239C41.505 24.651 42.0871 26.4669 42.0871 28.4371C42.0873 29.2122 41.4896 29.8466 40.7303 29.9075Z" fill="black"/>
</g>
<defs>
<clipPath id="clip0_238_4526">
<rect width="50" height="50" fill="white"/>
</clipPath>
</defs>
</svg>
