<svg width="50" height="50" viewBox="0 0 50 50" fill="none" xmlns="http://www.w3.org/2000/svg">
<g clip-path="url(#clip0_238_3657)">
<path d="M39.5343 9.25195C38.8651 9.25195 38.3204 9.79658 38.3204 10.4658C38.3204 11.1351 38.8651 11.6797 39.5343 11.6797C40.2036 11.6797 40.7482 11.1352 40.7482 10.4658C40.7482 9.79648 40.2036 9.25195 39.5343 9.25195Z" fill="black"/>
<path d="M25 14.2388C19.0662 14.2388 14.2386 19.0663 14.2386 25.0001C14.2386 30.9339 19.0662 35.7615 25 35.7615C30.9339 35.7615 35.7614 30.934 35.7614 25.0002C35.7614 19.0664 30.9339 14.2388 25 14.2388Z" fill="black"/>
<path d="M36.2933 0H13.7067C6.14883 0 0 6.14883 0 13.7068V36.2933C0 43.8513 6.14883 50 13.7067 50H36.2933C43.8513 50 50 43.8512 50 36.2933V13.7068C50 6.14883 43.8513 0 36.2933 0ZM25 38.7141C17.438 38.7141 11.286 32.562 11.286 25C11.286 17.438 17.4381 11.2861 25 11.2861C32.5619 11.2861 38.7141 17.4381 38.7141 25C38.7141 32.5619 32.5619 38.7141 25 38.7141ZM39.5343 14.6324C37.2368 14.6324 35.3677 12.7633 35.3677 10.4658C35.3677 8.16836 37.2368 6.29912 39.5343 6.29912C41.8317 6.29912 43.7009 8.16826 43.7009 10.4657C43.7009 12.7632 41.8317 14.6324 39.5343 14.6324Z" fill="black"/>
</g>
<defs>
<clipPath id="clip0_238_3657">
<rect width="50" height="50" fill="white"/>
</clipPath>
</defs>
</svg>
