<svg width="50" height="50" viewBox="0 0 50 50" fill="none" xmlns="http://www.w3.org/2000/svg">
<g clip-path="url(#clip0_238_3823)">
<path d="M32.6299 24.9437C31.8146 24.9437 31.1535 24.2827 31.1535 23.4674V17.4916C31.1535 16.5749 31.8994 15.8289 32.8161 15.8289H37.9365V11.6265H32.8161C29.5821 11.6265 26.951 14.2575 26.951 17.4915V23.4673C26.951 24.2826 26.2899 24.9437 25.4746 24.9437H20.168V29.1461H25.4747C26.29 29.1461 26.9511 29.8071 26.9511 30.6225V50.0002H31.1536V30.6225C31.1536 29.8071 31.8146 29.1461 32.63 29.1461H37.9367V24.9437L32.6299 24.9437Z" fill="black"/>
<path d="M43.9105 0H6.08967C2.73186 0 0.00012207 2.73174 0.00012207 6.08955V43.9104C0.00012207 47.2683 2.73186 50 6.08967 50H23.9984V32.0986H18.6916C17.8763 32.0986 17.2153 31.4376 17.2153 30.6223V23.4672C17.2153 22.6519 17.8763 21.9908 18.6916 21.9908H23.9984V17.4914C23.9984 12.6293 27.954 8.67363 32.8161 8.67363H39.4129C40.2283 8.67363 40.8893 9.33467 40.8893 10.15V17.3051C40.8893 18.1204 40.2283 18.7814 39.4129 18.7814H34.1062V21.9908H39.4129C40.2283 21.9908 40.8893 22.6519 40.8893 23.4672V30.6223C40.8893 31.4376 40.2283 32.0986 39.4129 32.0986H34.1062V50H43.9104C47.2682 50 49.9999 47.2683 49.9999 43.9104V6.08955C50 2.73174 47.2683 0 43.9105 0Z" fill="black"/>
</g>
<defs>
<clipPath id="clip0_238_3823">
<rect width="50" height="50" fill="white"/>
</clipPath>
</defs>
</svg>
