<svg width="50" height="50" viewBox="0 0 50 50" fill="none" xmlns="http://www.w3.org/2000/svg">
<path d="M49.7792 8.55851C49.4836 8.00575 48.9426 7.69243 48.3795 7.74856L45.8864 7.99823L48.2695 2.47585C48.5533 1.81812 48.4412 1.02568 47.9908 0.50513C47.5402 -0.0154168 46.8515 -0.148108 46.278 0.174751L39.9706 3.72563C36.0738 1.36077 31.2054 2.06273 27.8554 5.57073C25.0594 8.49845 23.5898 13.0008 23.8638 17.4908C16.5563 16.6488 10.3707 11.8406 6.71309 4.07161C6.47041 3.55623 6.01543 3.21912 5.50693 3.17769C4.99746 3.13694 4.50664 3.39649 4.20332 3.86764C1.93475 7.39057 1.77557 12.2209 3.554 16.1947C3.06376 16.0524 2.54208 15.8598 1.96356 15.6376C1.46796 15.4471 0.921566 15.5691 0.523811 15.9589C0.126056 16.3486 -0.0651557 16.9493 0.0199032 17.5422C0.723617 22.4466 3.21152 26.2158 7.14161 28.4468C6.62989 28.6517 6.10772 28.8181 5.57676 28.9453C5.04922 29.0717 4.62207 29.5153 4.45947 30.1059C4.29687 30.6964 4.42402 31.3419 4.79219 31.7942C7.62237 35.2718 11.7107 36.9834 14.6146 37.8045C11.3128 40.7768 7.74864 41.2742 2.56952 41.0698C1.97001 41.0489 1.41766 41.4371 1.16561 42.0618C0.913656 42.6866 1.01141 43.4242 1.41405 43.9344C3.57304 46.67 11.4389 49.7547 19.7077 49.986C20.0347 49.9951 20.3683 50 20.7089 50C26.5147 49.9999 34.1877 48.5693 39.6952 42.2382C43.8639 37.4462 46.4713 31.9297 47.4449 25.8423C48.2312 20.9257 47.7342 16.9885 47.4955 15.0963C47.4779 14.9572 47.4591 14.8096 47.4439 14.6805L49.776 10.3596C50.0735 9.80841 50.0748 9.11128 49.7792 8.55851Z" fill="black"/>
</svg>
